<?xml version="1.0" encoding="utf-8"?>
<!-- Generator: Adobe Illustrator 16.0.0, SVG Export Plug-In . SVG Version: 6.00 Build 0)  -->
<!DOCTYPE svg PUBLIC "-//W3C//DTD SVG 1.1//EN" "http://www.w3.org/Graphics/SVG/1.1/DTD/svg11.dtd">
<svg version="1.1" id="Calque_1" xmlns="http://www.w3.org/2000/svg" xmlns:xlink="http://www.w3.org/1999/xlink" x="0px" y="0px"
	 width="500px" height="500px" viewBox="0 0 500 500" style="enable-background:new 0 0 500 500;" xml:space="preserve">
<style type="text/css">
<![CDATA[
	.st0{fill-rule:evenodd;clip-rule:evenodd;fill:#D72E3C;}
	.st1{fill-rule:evenodd;clip-rule:evenodd;fill:#A41F22;}
	.st2{fill-rule:evenodd;clip-rule:evenodd;fill:#DBEEFA;}
	.st3{fill-rule:evenodd;clip-rule:evenodd;fill:#DC7787;}
	.st4{fill-rule:evenodd;clip-rule:evenodd;fill:#E0686E;}
	.st5{fill-rule:evenodd;clip-rule:evenodd;fill:#875C2C;}
	.st6{clip-path:url(#SVGID_2_);}
	.st7{clip-path:url(#SVGID_4_);}
	.st8{fill-rule:evenodd;clip-rule:evenodd;fill:#55C7E0;}
	.st9{fill-rule:evenodd;clip-rule:evenodd;fill:#59C9EA;}
	.st10{fill-rule:evenodd;clip-rule:evenodd;fill:#F48E96;}
	.st11{fill-rule:evenodd;clip-rule:evenodd;fill:#F59BA6;}
	.st12{fill-rule:evenodd;clip-rule:evenodd;fill:#5DC9E9;}
	.st13{fill-rule:evenodd;clip-rule:evenodd;fill:#C28040;}
	.st14{fill-rule:evenodd;clip-rule:evenodd;fill:#98795D;}
	.st15{fill-rule:evenodd;clip-rule:evenodd;fill:#FBB250;}
	.st16{fill-rule:evenodd;clip-rule:evenodd;fill:#FBD5D8;}
	.st17{fill-rule:evenodd;clip-rule:evenodd;fill:#9FDAEF;}
	.st18{fill-rule:evenodd;clip-rule:evenodd;fill:#00AADF;}
	.st19{fill-rule:evenodd;clip-rule:evenodd;fill:#00BADF;}
]]>
</style>
<g>
	<defs>
		<rect id="SVGID_1_" x="42.617" y="42.616" width="414.766" height="414.768"/>
	</defs>
	<clipPath id="SVGID_2_">
		<use xlink:href="#SVGID_1_"  style="overflow:visible;"/>
	</clipPath>
	<g class="st6">
		<defs>
			<rect id="SVGID_3_" x="31.472" y="30.622" width="437.065" height="437.868"/>
		</defs>
		<clipPath id="SVGID_4_">
			<use xlink:href="#SVGID_3_"  style="overflow:visible;"/>
		</clipPath>
		<g class="st7">
			<path class="st1" d="M250.083,447.816c-20.021-7.638-35.317-22.392-51.367-35.556c-36.761-30.156-67.238-66.238-93.685-105.655
				C80.687,270.322,60.74,231.885,52.16,188.58c-4.258-21.488-6.545-43.206,3.957-63.946c25.82,8.715,49.83,21.532,74.473,32.912
				c1.912,7.895,5.866,14.948,8.979,22.363c31.501,75.048,62.974,150.111,93.844,225.42c5.765,14.063,14.31,27.143,16.479,42.616
				L250.083,447.816z"/>
			<path class="st4" d="M448.684,122.688c7.756,14.968,8.965,31.211,6.982,47.315c-6.732,54.711-30.684,102.669-62.064,146.777
				c-37.705,53-82.904,98.781-138.77,133.142c0.178-1.644-0.024-3.445,0.588-4.905c20.044-47.853,40.237-95.643,60.256-143.505
				c20.328-48.604,40.494-97.273,60.732-145.915C401.012,145.751,425.098,134.768,448.684,122.688z"/>
			<path class="st0" d="M376.408,155.597c-20.238,48.642-40.404,97.312-60.732,145.915c-20.02,47.862-40.212,95.652-60.256,143.505
				c-0.612,1.46-0.41,3.262-0.588,4.905c-2.041,0.328-4.229,0.994-4.749-2.106c0,0.001-0.191,0.13-0.193,0.13
				c4.916-3.785,2.459-9.131,2.47-13.661c0.223-100.621,0.242-201.241,0.3-301.863l0.048,0.33
				c14.807,2.784,29.59,5.709,44.424,8.323c25.709,4.529,51.041,11.208,77.129,13.578
				C374.924,155.088,375.641,155.401,376.408,155.597z"/>
			<path class="st11" d="M130.589,157.545c-24.643-11.379-48.652-24.196-74.473-32.911c7.989-20.189,25.052-31.79,42.241-42.456
				c26.169-16.24,54.222-23.696,84.604-11.61c0.886,6.559-4.027,10.575-7.04,15.255c-14.882,23.119-30.045,46.055-45.11,69.056
				C130.738,155.767,130.664,156.655,130.589,157.545z"/>
			<path class="st16" d="M376.408,155.597c-0.768-0.195-1.484-0.509-2.146-0.944c-0.73-5.612-5.021-9.235-7.752-13.713
				c-14.467-23.723-32.453-45.202-44.838-70.256c17.297-8.456,35.553-7.397,52.982-2.459c29.07,8.236,53.852,23.936,72.002,48.792
				c1.135,1.555,1.371,3.765,2.027,5.671C425.098,134.768,401.012,145.751,376.408,155.597z"/>
			<path class="st10" d="M321.672,70.684c12.385,25.054,30.371,46.533,44.838,70.256c2.73,4.478,7.021,8.101,7.752,13.713
				c-26.088-2.37-51.42-9.049-77.129-13.578c-14.834-2.614-29.618-5.539-44.424-8.324c-0.143-0.75-0.248-1.503-0.314-2.261
				c6.723-8.548,13.286-17.23,20.206-25.615C285.752,88.936,301.801,77.036,321.672,70.684z"/>
			<path class="st3" d="M252.395,130.489c0.066,0.758,0.171,1.511,0.314,2.261c0,0.001-0.048-0.329-0.048-0.329
				c-10.743,2.042-21.486,4.082-32.227,6.126c-29.831,5.68-59.435,12.608-89.621,16.331c15.065-23.001,30.228-45.937,45.11-69.056
				c3.013-4.68,7.926-8.696,7.04-15.255c27.602,7.513,45.55,27.248,61.903,48.967C247.528,123.071,249.893,126.831,252.395,130.489z
				"/>
			<path class="st16" d="M130.813,154.878c30.187-3.723,59.791-10.651,89.621-16.331c10.741-2.044,21.484-4.084,32.227-6.126
				c-0.058,100.622-0.077,201.242-0.3,301.863c-0.011,4.53,2.446,9.876-2.47,13.661c-2.168-15.474-10.713-28.554-16.478-42.616
				c-30.871-75.309-62.343-150.372-93.844-225.42c-3.113-7.415-7.067-14.469-8.979-22.363
				C130.664,156.655,130.738,155.767,130.813,154.878z"/>
		</g>
	</g>
</g>
<g>
	<path class="st13" d="M748.288,14.78c12.589,9.843,25.369,19.455,37.7,29.61c8.124,6.691,12.809,15.187,12.405,26.408
		c-1.07,29.772-0.808,59.612-2.604,89.333c-1.975,32.662-2.625,65.404-4.934,97.978c-1.617,22.826,0.482,45.867-3.919,68.503
		c-1.345,6.925,1.626,9.099,8.689,8.908c18.171-0.49,36.37,0.108,54.547-0.265c10.745-0.221,21.424,3.294,24.285,12.61
		c3.118,10.149,4.276,22.572-2.349,32.851c-3.697,5.736-9.99,7.142-16.862,7.085c-24.241-0.201-48.488-0.026-72.733,0.007
		c-11.458-0.071-22.917-0.143-34.376-0.213C748.188,263.322,748.238,139.051,748.288,14.78z"/>
	<path class="st15" d="M748.288,14.78c-0.05,124.271-0.1,248.542-0.149,372.814l0.076,0.163
		c-10.643,0.068-21.284,0.136-31.925,0.204c-23.514-0.084-47.062-0.937-70.527,0.086c-11.039,0.482-19.792-5.905-21.693-16.816
		c-3.519-20.19,1.295-37.004,26.371-36.011c17.8,0.705,35.65,0.028,53.477,0.191c6.257,0.058,9.897-1.026,6.218-8.292
		c-0.792-1.563-0.686-3.72-0.576-5.579c1.551-26.49-1.941-52.834-2.773-79.245c-1.067-33.87-1.963-67.879-4.861-101.572
		c-1.973-22.912,1.243-45.897-3.188-68.748c-1.405-7.253,1.521-16.371,8.494-22.27C720.949,38.103,734.605,26.427,748.288,14.78z"/>
	<path class="st5" d="M748.139,387.594c11.459,0.071,22.918,0.142,34.376,0.213c-0.054,20.776,0.013,41.553-0.197,62.326
		c-0.176,17.395-17.513,35.115-34.009,35.087c-0.032-32.488-0.063-64.976-0.094-97.464L748.139,387.594z"/>
	<path class="st14" d="M748.215,387.757c0.031,32.488,0.062,64.976,0.094,97.464c-17.615-1.706-31.934-16.722-31.959-33.556
		c-0.033-21.236-0.042-42.472-0.06-63.707C726.931,387.893,737.572,387.825,748.215,387.757z"/>
</g>
<g>
	<path class="st8" d="M1375.021,119.443c5.207-1.055,7.336,2.619,9.185,6.279c14.016,27.738,27.889,55.548,41.963,83.254
		c1.861,3.664,1.903,6.257-1.937,8.274c-6.505-0.075-11.539,3.631-16.849,6.592c-33.145,18.473-66.278,36.971-99.417,55.46
		c-4.063-5.406-8.126-10.81-12.19-16.215c-3.06-26.808-12.066-51.613-25.264-75.005c0.198-1.214,0.455-2.415,0.771-3.603
		c14.334-8.092,29.311-15.24,42.852-24.494C1334.273,146.223,1358.87,139.131,1375.021,119.443z"/>
	<path class="st9" d="M1076.152,192.409c-8.688-7.508,0.898-10.608,4.122-13.967c17.123-17.839,35.073-34.887,52.233-52.694
		c22.779-23.637,44.974-47.841,67.719-71.514c4.467-4.65,7.904-11.883,16.499-10.315c0.251,2.738,0.499,5.477,0.746,8.213
		c2.117,14.063,3.738,28.229,6.465,42.175c5.407,27.654,11.606,54.897-11.247,78.834c-8.387,8.785-14.593,19.696-21.482,29.847
		c-5.272,7.764-10.7,9.066-20.58,6.74c-29.714-6.997-59.964-11.721-90.005-17.332
		C1079.133,192.401,1077.642,192.404,1076.152,192.409z"/>
	<path class="st18" d="M1307.967,279.302c33.139-18.489,66.272-36.987,99.417-55.46c5.31-2.961,10.344-6.667,16.849-6.592
		c-42.144,62.063-84.251,124.153-126.46,186.174c-9.813,14.421-20.221,28.442-29.87,42.97c-4.571,6.88-8.256,13.89-17.914,7.208
		c-0.147-33.499-0.016-66.985,4.163-100.304C1272.089,328.633,1290.029,303.968,1307.967,279.302z"/>
	<path class="st19" d="M1254.151,353.299c-4.179,33.319-4.311,66.806-4.163,100.304c-20.324-6.818-25.062-27-34.971-42.205
		c-45.479-69.801-89.995-140.228-134.857-210.432c1.068-1.016,2.136-2.031,3.204-3.047c13.751,9.401,27.004,19.661,41.369,28.006
		c22.947,13.332,42.022,32.818,67.437,42.134c4.605,18.368,20.063,29.576,29.52,44.745
		C1232.733,326.124,1240.555,342.024,1254.151,353.299z"/>
	<path class="st17" d="M1217.474,52.136c-0.249-2.741-0.497-5.479-0.748-8.217c54.224,22.113,106.988,47.279,158.294,75.518
		c-16.149,19.694-40.746,26.786-60.885,40.548c-13.541,9.254-28.518,16.402-42.854,24.492
		C1253.938,140.119,1237.679,95.325,1217.474,52.136z"/>
	<path class="st19" d="M1076.152,192.409c1.489-0.004,2.98-0.008,4.47-0.012c0.914,1.841,1.829,3.682,2.742,5.523
		c-1.068,1.016-2.136,2.031-3.204,3.047C1075.58,199.631,1076.561,195.697,1076.152,192.409z"/>
	<path class="st2" d="M1083.364,197.92c-0.913-1.841-1.828-3.682-2.742-5.523c30.041,5.61,60.291,10.335,90.005,17.332
		c9.88,2.326,15.308,1.024,20.58-6.74c6.89-10.151,13.096-21.062,21.482-29.847c22.854-23.938,16.654-51.18,11.247-78.834
		c-2.727-13.946-4.348-28.111-6.465-42.175c20.207,43.193,36.466,87.987,53.81,132.345c-0.313,1.19-0.57,2.391-0.767,3.605
		c-27.155,25.642-55.129,50.479-78.345,79.979c-25.414-9.316-44.489-28.802-67.437-42.134
		C1110.368,217.581,1097.115,207.321,1083.364,197.92z"/>
	<path class="st12" d="M1192.17,268.06c23.216-29.5,51.189-54.336,78.345-79.979c13.195,23.393,22.202,48.197,25.262,75.005
		c-24.695,16.571-49.392,33.145-74.087,49.718C1212.233,297.636,1196.775,286.428,1192.17,268.06z"/>
	<path class="st2" d="M1221.689,312.805c24.695-16.574,49.392-33.147,74.087-49.718c4.064,5.406,8.128,10.81,12.19,16.215
		c-17.938,24.666-35.878,49.331-53.815,73.997C1240.555,342.024,1232.733,326.124,1221.689,312.805z"/>
</g>
<g>
</g>
<g>
</g>
<g>
</g>
<g>
</g>
<g>
</g>
<g>
</g>
<g>
</g>
<g>
</g>
<g>
</g>
<g>
</g>
<g>
</g>
<g>
</g>
<g>
</g>
<g>
</g>
<g>
</g>
</svg>
