<svg xmlns="http://www.w3.org/2000/svg" xmlns:xlink="http://www.w3.org/1999/xlink" id="Calque_1" width="500" height="500">
	<style>
		.st16,
		.st19,
		.st10 {
			fill-rule: evenodd;
			clip-rule: evenodd;
			fill: #dbeefa
		}

		.st16,
		.st19 {
			fill: #fbd5d8
		}

		.st19 {
			fill: #00badf
		}
	</style>
	<defs>
		<path id="SVGID_1_" d="M42.617 42.616h414.766v414.768H42.617z" />
	</defs>
	<clipPath id="SVGID_2_">
		<use overflow="visible" xlink:href="#SVGID_1_" />
	</clipPath>
	<g clip-path="url(#SVGID_2_)">
		<defs>
			<path id="SVGID_3_" d="M31.472 30.622h437.065V468.49H31.472z" />
		</defs>
		<clipPath id="SVGID_4_">
			<use overflow="visible" xlink:href="#SVGID_3_" />
		</clipPath>
		<g clip-path="url(#SVGID_4_)">
			<path fill="#a41f22" fill-rule="evenodd" d="M250.083 447.816c-20.021-7.638-35.317-22.392-51.367-35.556-36.761-30.156-67.238-66.238-93.685-105.655-24.344-36.283-44.291-74.72-52.871-118.025-4.258-21.488-6.545-43.206 3.957-63.946 25.82 8.715 49.83 21.532 74.473 32.912 1.912 7.895 5.866 14.948 8.979 22.363 31.501 75.048 62.974 150.111 93.844 225.42 5.765 14.063 14.31 27.143 16.479 42.616l.191-.129z"
			 clip-rule="evenodd" />
			<path fill="#e0686e" fill-rule="evenodd" d="M448.684 122.688c7.756 14.968 8.965 31.211 6.982 47.315-6.732 54.711-30.684 102.669-62.064 146.777-37.705 53-82.904 98.781-138.77 133.142.178-1.644-.024-3.445.588-4.905 20.044-47.853 40.237-95.643 60.256-143.505 20.328-48.604 40.494-97.273 60.732-145.915 24.604-9.846 48.69-20.829 72.276-32.909z"
			 clip-rule="evenodd" />
			<path fill="#d72e3c" fill-rule="evenodd" d="M376.408 155.597c-20.238 48.642-40.404 97.312-60.732 145.915-20.02 47.862-40.212 95.652-60.256 143.505-.612 1.46-.41 3.262-.588 4.905-2.041.328-4.229.994-4.749-2.106 0 .001-.191.13-.193.13 4.916-3.785 2.459-9.131 2.47-13.661.223-100.621.242-201.241.3-301.863l.048.33c14.807 2.784 29.59 5.709 44.424 8.323 25.709 4.529 51.041 11.208 77.129 13.578.663.435 1.38.748 2.147.944z"
			 clip-rule="evenodd" />
			<path fill="#f59ba6" fill-rule="evenodd" d="M130.589 157.545c-24.643-11.379-48.652-24.196-74.473-32.911 7.989-20.189 25.052-31.79 42.241-42.456 26.169-16.24 54.222-23.696 84.604-11.61.886 6.559-4.027 10.575-7.04 15.255-14.882 23.119-30.045 46.055-45.11 69.056-.073.888-.147 1.776-.222 2.666z"
			 clip-rule="evenodd" />
			<path d="M376.408 155.597c-.768-.195-1.484-.509-2.146-.944-.73-5.612-5.021-9.235-7.752-13.713-14.467-23.723-32.453-45.202-44.838-70.256 17.297-8.456 35.553-7.397 52.982-2.459 29.07 8.236 53.852 23.936 72.002 48.792 1.135 1.555 1.371 3.765 2.027 5.671-23.585 12.08-47.671 23.063-72.275 32.909z"
			 class="st16" />
			<path fill="#f48e96" fill-rule="evenodd" d="M321.672 70.684c12.385 25.054 30.371 46.533 44.838 70.256 2.73 4.478 7.021 8.101 7.752 13.713-26.088-2.37-51.42-9.049-77.129-13.578-14.834-2.614-29.618-5.539-44.424-8.324-.143-.75-.248-1.503-.314-2.261 6.723-8.548 13.286-17.23 20.206-25.615 13.151-15.939 29.2-27.839 49.071-34.191z"
			 clip-rule="evenodd" />
			<path fill="#dc7787" fill-rule="evenodd" d="M252.395 130.489c.066.758.171 1.511.314 2.261 0 .001-.048-.329-.048-.329-10.743 2.042-21.486 4.082-32.227 6.126-29.831 5.68-59.435 12.608-89.621 16.331 15.065-23.001 30.228-45.937 45.11-69.056 3.013-4.68 7.926-8.696 7.04-15.255 27.602 7.513 45.55 27.248 61.903 48.967 2.662 3.537 5.027 7.297 7.529 10.955z"
			 clip-rule="evenodd" />
			<path d="M130.813 154.878c30.187-3.723 59.791-10.651 89.621-16.331 10.741-2.044 21.484-4.084 32.227-6.126-.058 100.622-.077 201.242-.3 301.863-.011 4.53 2.446 9.876-2.47 13.661-2.168-15.474-10.713-28.554-16.478-42.616-30.871-75.309-62.343-150.372-93.844-225.42-3.113-7.415-7.067-14.469-8.979-22.363.074-.891.148-1.779.223-2.668z"
			 class="st16" />
		</g>
	</g>
	<g fill-rule="evenodd" clip-rule="evenodd">
		<path fill="#c28040" d="M748.288 14.78c12.589 9.843 25.369 19.455 37.7 29.61 8.124 6.691 12.809 15.187 12.405 26.408-1.07 29.772-.808 59.612-2.604 89.333-1.975 32.662-2.625 65.404-4.934 97.978-1.617 22.826.482 45.867-3.919 68.503-1.345 6.925 1.626 9.099 8.689 8.908 18.171-.49 36.37.108 54.547-.265 10.745-.221 21.424 3.294 24.285 12.61 3.118 10.149 4.276 22.572-2.349 32.851-3.697 5.736-9.99 7.142-16.862 7.085-24.241-.201-48.488-.026-72.733.007-11.458-.071-22.917-.143-34.376-.213.051-124.273.101-248.544.151-372.815z" />
		<path fill="#fbb250" d="M748.288 14.78c-.05 124.271-.1 248.542-.149 372.814l.076.163c-10.643.068-21.284.136-31.925.204-23.514-.084-47.062-.937-70.527.086-11.039.482-19.792-5.905-21.693-16.816-3.519-20.19 1.295-37.004 26.371-36.011 17.8.705 35.65.028 53.477.191 6.257.058 9.897-1.026 6.218-8.292-.792-1.563-.686-3.72-.576-5.579 1.551-26.49-1.941-52.834-2.773-79.245-1.067-33.87-1.963-67.879-4.861-101.572-1.973-22.912 1.243-45.897-3.188-68.748-1.405-7.253 1.521-16.371 8.494-22.27 13.717-11.602 27.373-23.278 41.056-34.925z" />
		<path fill="#875c2c" d="M748.139 387.594c11.459.071 22.918.142 34.376.213-.054 20.776.013 41.553-.197 62.326-.176 17.395-17.513 35.115-34.009 35.087-.032-32.488-.063-64.976-.094-97.464l-.076-.162z" />
		<path fill="#98795d" d="M748.215 387.757c.031 32.488.062 64.976.094 97.464-17.615-1.706-31.934-16.722-31.959-33.556-.033-21.236-.042-42.472-.06-63.707 10.641-.065 21.282-.133 31.925-.201z" />
	</g>
	<path fill="#55c7e0" fill-rule="evenodd" d="M1375.021 119.443c5.207-1.055 7.336 2.619 9.185 6.279 14.016 27.738 27.889 55.548 41.963 83.254 1.861 3.664 1.903 6.257-1.937 8.274-6.505-.075-11.539 3.631-16.849 6.592-33.145 18.473-66.278 36.971-99.417 55.46-4.063-5.406-8.126-10.81-12.19-16.215-3.06-26.808-12.066-51.613-25.264-75.005.198-1.214.455-2.415.771-3.603 14.334-8.092 29.311-15.24 42.852-24.494 20.138-13.762 44.735-20.854 60.886-40.542z"
	 clip-rule="evenodd" />
	<path fill="#59c9ea" fill-rule="evenodd" d="M1076.152 192.409c-8.688-7.508.898-10.608 4.122-13.967 17.123-17.839 35.073-34.887 52.233-52.694 22.779-23.637 44.974-47.841 67.719-71.514 4.467-4.65 7.904-11.883 16.499-10.315.251 2.738.499 5.477.746 8.213 2.117 14.063 3.738 28.229 6.465 42.175 5.407 27.654 11.606 54.897-11.247 78.834-8.387 8.785-14.593 19.696-21.482 29.847-5.272 7.764-10.7 9.066-20.58 6.74-29.714-6.997-59.964-11.721-90.005-17.332-1.489.005-2.98.008-4.47.013z"
	 clip-rule="evenodd" />
	<path fill="#00aadf" fill-rule="evenodd" d="M1307.967 279.302c33.139-18.489 66.272-36.987 99.417-55.46 5.31-2.961 10.344-6.667 16.849-6.592-42.144 62.063-84.251 124.153-126.46 186.174-9.813 14.421-20.221 28.442-29.87 42.97-4.571 6.88-8.256 13.89-17.914 7.208-.147-33.499-.016-66.985 4.163-100.304 17.937-24.665 35.877-49.33 53.815-73.996z"
	 clip-rule="evenodd" />
	<path d="M1254.151 353.299c-4.179 33.319-4.311 66.806-4.163 100.304-20.324-6.818-25.062-27-34.971-42.205-45.479-69.801-89.995-140.228-134.857-210.432 1.068-1.016 2.136-2.031 3.204-3.047 13.751 9.401 27.004 19.661 41.369 28.006 22.947 13.332 42.022 32.818 67.437 42.134 4.605 18.368 20.063 29.576 29.52 44.745 11.043 13.32 18.865 29.22 32.461 40.495z"
	 class="st19" />
	<path fill="#9fdaef" fill-rule="evenodd" d="M1217.474 52.136c-.249-2.741-.497-5.479-.748-8.217 54.224 22.113 106.988 47.279 158.294 75.518-16.149 19.694-40.746 26.786-60.885 40.548-13.541 9.254-28.518 16.402-42.854 24.492-17.343-44.358-33.602-89.152-53.807-132.341z"
	 clip-rule="evenodd" />
	<path d="M1076.152 192.409c1.489-.004 2.98-.008 4.47-.012.914 1.841 1.829 3.682 2.742 5.523-1.068 1.016-2.136 2.031-3.204 3.047-4.58-1.336-3.599-5.27-4.008-8.558z"
	 class="st19" />
	<path d="M1083.364 197.92c-.913-1.841-1.828-3.682-2.742-5.523 30.041 5.61 60.291 10.335 90.005 17.332 9.88 2.326 15.308 1.024 20.58-6.74 6.89-10.151 13.096-21.062 21.482-29.847 22.854-23.938 16.654-51.18 11.247-78.834-2.727-13.946-4.348-28.111-6.465-42.175 20.207 43.193 36.466 87.987 53.81 132.345-.313 1.19-.57 2.391-.767 3.605-27.155 25.642-55.129 50.479-78.345 79.979-25.414-9.316-44.489-28.802-67.437-42.134-14.364-8.347-27.617-18.607-41.368-28.008z"
	 class="st10" />
	<path fill="#5dc9e9" fill-rule="evenodd" d="M1192.17 268.06c23.216-29.5 51.189-54.336 78.345-79.979 13.195 23.393 22.202 48.197 25.262 75.005-24.695 16.571-49.392 33.145-74.087 49.718-9.457-15.168-24.915-26.376-29.52-44.744z"
	 clip-rule="evenodd" />
	<path d="M1221.689 312.805c24.695-16.574 49.392-33.147 74.087-49.718 4.064 5.406 8.128 10.81 12.19 16.215-17.938 24.666-35.878 49.331-53.815 73.997-13.596-11.275-21.418-27.175-32.462-40.494z"
	 class="st10" />
</svg>