<?xml version="1.0" encoding="utf-8"?>
<!-- Generator: Adobe Illustrator 16.0.0, SVG Export Plug-In . SVG Version: 6.00 Build 0)  -->
<!DOCTYPE svg PUBLIC "-//W3C//DTD SVG 1.1//EN" "http://www.w3.org/Graphics/SVG/1.1/DTD/svg11.dtd">
<svg version="1.1" id="Calque_1" xmlns="http://www.w3.org/2000/svg" xmlns:xlink="http://www.w3.org/1999/xlink" x="0px" y="0px"
	 width="500px" height="500px" viewBox="0 0 500 500" style="enable-background:new 0 0 500 500;" xml:space="preserve">
<style type="text/css">
<![CDATA[
	.st0{opacity:0.29;}
	.st1{fill:#EACBC6;}
	.st2{fill:#B792C3;}
	.st3{clip-path:url(#SVGID_4_);fill:#A81D2F;}
	.st4{fill:#EFBEB3;}
	.st5{clip-path:url(#SVGID_2_);fill:#E7A9A3;}
	.st6{fill:#8D481F;}
	.st7{fill:#8E97CB;}
	.st8{fill:#231F20;}
	.st9{clip-path:url(#SVGID_6_);fill:#A81D2F;}
	.st10{fill:#F8B3AD;}
	.st11{clip-path:url(#robe_1_);fill:#424766;}
	.st12{clip-path:url(#cuerpo_1_);fill:#CFA5A1;}
	.st13{clip-path:url(#SVGID_8_);fill:#E7A9A3;}
	.st14{fill:#DB9B93;}
]]>
</style>
<g id="perso">
	<g id="ailes">
		<path class="st7" d="M152.549,237.74c0,0,118.298-190.802,158.629-216.396c-10.86,119.444-4.654,97.698-73.258,169.195
			C191.167,239.26,152.549,237.74,152.549,237.74z"/>
		<path class="st7" d="M157.607,253.252c0,0,264.91-182.27,291.629-168.309c26.725,13.961-52.739,144.877-90.745,156.205
			s-184.38,49.775-200.884,55.498C141.101,302.363,157.607,253.252,157.607,253.252z"/>
		<path class="st7" d="M160.708,285.053c0,0,114.792-4.396,147.368-7.24s84.54-21.457,80.662-6.721
			c-3.878,14.738-12.266,46.777-48.862,50.414c-36.597,3.639-123.093-8.873-156.121-24.398
			C150.725,281.58,160.708,285.053,160.708,285.053z"/>
	</g>
	<g id="ailes_1_" class="st0">
		<path class="st7" d="M158.201,236.259c0,0,143.315-172.799,186.773-192.63c-27.114,116.832-17.989,96.142-95.743,157.566
			C196.248,243.055,158.201,236.259,158.201,236.259z"/>
		<path class="st7" d="M161.085,252.318c0,0,287.378-144.268,311.935-126.777c24.56,17.488-72.088,136.287-111.285,142.303
			c-39.201,6.018-189.459,24.053-206.593,27.457C138.01,298.707,161.085,252.318,161.085,252.318z"/>
		<path class="st7" d="M159.803,284.24c0,0,114.313,11.373,146.971,13.018c32.658,1.643,86.682-9.676,80.822,4.389
			c-5.858,14.064-18.557,44.656-55.308,43.246c-36.75-1.408-120.716-25.646-151.308-45.549
			C150.39,279.438,159.803,284.24,159.803,284.24z"/>
	</g>
	<g id="ailes_2_" class="st0">
		<path class="st2" d="M146.395,238.142c0,0,96.176-202.854,133.388-232.806c2.59,119.909,6.32,97.606-53.843,176.337
			C184.94,235.327,146.395,238.142,146.395,238.142z"/>
		<path class="st2" d="M153.157,252.99c0,0,242.821-210.799,270.939-199.92c28.119,10.879-36.178,149.872-72.674,165.387
			c-36.496,15.514-177.643,70.119-193.403,77.652C142.258,303.643,153.157,252.99,153.157,252.99z"/>
		<path class="st2" d="M159.803,284.24c0,0,113.576-17.227,145.629-23.701c32.051-6.477,81.604-30.794,79.403-15.717
			c-2.204,15.08-6.95,47.861-42.91,55.572c-35.956,7.713-123.311,4.973-157.871-6.754
			C149.494,281.912,159.803,284.24,159.803,284.24z"/>
	</g>
	<g>
		<defs>
			<path id="cuerpo" d="M133.303,225.072c-1.551,24.819,1.552,27.922-9.824,30.506c-11.375,2.586-18.059,40.332-18.059,40.332
				c-14.203-4.943-27.713-10.596-35.264-19.26c-1.229-1.488,3.296-8.535-0.064-10.859c-0.768-0.529-2.835,8.764-3.186,8.471
				c-3.867-3.209-6.956-6.26-9.096-8.857c-7.238-8.793-0.517,7.24,2.069,9.307c-11.377-7.238-15.707-11.373-15.19-7.238
				s13.444,10.34,13.444,10.34c-14.09-2.393-15.9-5.365-16.417-3.422c-0.517,1.938,14.09,7.043,15.254,7.043
				c-13.833-0.391-16.052-0.627-13.897,1.678c0.905,0.973,15.188,1.617,15.188,1.617c8.936,5.994,47.129,29.027,53.713,31.605
				c9.565,3.748,9.824,2.586,12.28-0.9c2.456-3.492,8.403-16.033,9.048-21.463c0.647-5.43,11.117,9.307,12.863,27.15
				c1.746,17.834-3.684,32.572-37.423,66.699c-33.74,34.129-36.841,45.568-28.503,52.744c8.336,7.172,54.485,15.9,96.176,6.785
				c7.756,12.023,10.083,17.453,10.083,17.453c7.95-27.537,6.397-42.467-3.298-44.406c-9.693-1.938-54.099,7.756-55.843,3.686
				c-1.745-4.07,10.47-12.217,21.716-24.822c11.246-12.602,30.444-26.563,50.61-18.807c20.165,7.754,8.828,16.732,42.464,47.313
				c14.931,13.572,17.255,16.869,28.309,25.4c11.053,8.531,26.566,17.646,27.343,18.229c3.877,13.961,7.948,21.523,10.083,23.27
				c10.277-20.168,6.593-26.375-4.267-40.721c-10.86-14.348-12.605-22.494-24.045-37.814
				c-11.439-15.316-24.817-29.664-29.668-36.063c-4.847-6.4-76.799-34.473-81.735-76.473c-4.938-42.002,45.282-17.379,57.304-10.203
				c12.022,7.176,33.352,17.84,47.12,32.379c13.765,14.545,20.94,18.615,22.3,20.945c-7.369,7.561-5.044,14.346-2.715,14.346
				c2.324,0,3.877,0,3.877,0c-0.969,3.879,1.355,6.594,3.878,5.045c0.386,4.264,2.521,5.232,5.236,3.102
				c12.216-13.576,12.795-19.199,15.51-14.545c2.716,4.654,0.97,8.857,3.878,5.205c2.912-3.652,0.776-15.092-6.785-22.461
				c-7.563-7.369-45.568-36.646-53.517-44.209c-7.951-7.561-70.129-50.287-91.652-49.511c-21.524,0.774-16.388,21.915-11.894-15.254
				C147.135,225.524,133.303,225.072,133.303,225.072z"/>
		</defs>
		<use xlink:href="#cuerpo"  style="overflow:visible;fill:#EACBC6;"/>
		<clipPath id="cuerpo_1_">
			<use xlink:href="#cuerpo"  style="overflow:visible;"/>
		</clipPath>
		<path class="st12" d="M158.962,246.659c17.84,0.776,3.685-22.88,3.685-22.88s-27.903,0.122-34.515,4.072
			C121.521,231.8,141.124,245.883,158.962,246.659z"/>
		<path class="st12" d="M147.781,413.793c17.84,0.777-16.555-33.727-16.555-33.727s-28.294-0.469-34.515,4.07
			C66.083,406.5,129.942,413.018,147.781,413.793z"/>
		<path class="st12" d="M268.106,401.1c14.895-9.844-16.559-33.729-16.559-33.729s-29.623-1.877-34.512,4.07
			C171.568,426.742,248.093,414.32,268.106,401.1z"/>
		<path class="st12" d="M199.059,297.566c14.898-9.846-29.539-31.809-29.539-31.809s-1.4,4.426-6.29,10.375
			C117.761,331.434,179.049,310.789,199.059,297.566z"/>
	</g>
	<g>
		<defs>
			<path id="robe" d="M120.27,256.197c-2.584,18.873,5.315,32.104,13.81,40.91c1.55,23.623,9.307,33.707,5.17,43.529
				c-4.137,9.826-8.791,24.045-20.683,27.664c-11.894,3.621-15.512,9.309-29.991,5.945c34.903,12.928,53.58,29.965,67.221,31.803
				c26.887,3.617,34.644-15.77,42.917-14.221c8.272,1.551,43.237,13.377,60.497-7.236c9.307-11.119-12.151-44.02-9.308-54.973
				c-14.736,14.895-15.788,13.371-28.956,0c-23.009-23.365-31.108-6.561-42.141-23.365c-11.034-16.809-5.299-14.014-5.106-30.121
				c0.184-15.383,6.383-31.477,6.383-31.477c-3.732-3.039-10.844,18.938-29.199,20.102c-9.163,0.582-19.089,1.809-24.927-9.824
				C121.799,254.934,120.27,256.197,120.27,256.197z"/>
		</defs>
		<use xlink:href="#robe"  style="overflow:visible;fill:#4A52A2;"/>
		<clipPath id="robe_1_">
			<use xlink:href="#robe"  style="overflow:visible;"/>
		</clipPath>
		<path class="st11" d="M134.338,331.008c0,0,29.099,41.65,42.464,45.76c2.52,0.777-9.695-20.939,1.357-37.813
			c11.051-16.869,13.378-21.133,11.247-27.143c-2.134-6.012,42.658-77.09,5.235-91.384c-37.423-14.295-115.179-9.449-103.739,27.588
			C102.343,285.053,134.338,331.008,134.338,331.008z"/>
	</g>
	<g>
		<defs>
			<path id="SVGID_1_" d="M102.504,175.444c0,0-24.701-25.721-27.307-45.927c-0.701-5.437-2.051,3.556-1.333,13.205
				c0.719,9.651,19.511,79.895,34.163,44.117C110.762,180.16,105.754,179.03,102.504,175.444z"/>
		</defs>
		<use xlink:href="#SVGID_1_"  style="overflow:visible;fill:#EFBEB3;"/>
		<clipPath id="SVGID_2_">
			<use xlink:href="#SVGID_1_"  style="overflow:visible;"/>
		</clipPath>
		<path class="st5" d="M69.115,176.641c-4.802-18.729-8.537-32.156-2.604-27.583s33.118,33.785,27.943,45.199
			c-5.174,11.415-17.257,14.562-20.425,6.845C70.862,193.385,69.115,176.641,69.115,176.641z"/>
	</g>
	<g id="cheveux">
		<g>
			<defs>
				<path id="SVGID_3_" d="M100.21,181.638c0,0-5.816,18.096-20.942,23.914c-15.124,5.816-25.982,14.573-26.758,27.84
					c11.634-12.329,16.676,0.47,30.637-3.409c13.961-3.877,21.716-16.674,21.716-16.674L100.21,181.638z"/>
			</defs>
			<use xlink:href="#SVGID_3_"  style="overflow:visible;fill:#EC1E2A;"/>
			<clipPath id="SVGID_4_">
				<use xlink:href="#SVGID_3_"  style="overflow:visible;"/>
			</clipPath>
			<path class="st3" d="M50.571,237.745c0,0,6.544-26.255,48.088-30.231c41.543-3.976,0,28.415,0,28.415L50.571,237.745z"/>
		</g>
		<path class="st1" d="M100.21,181.638c-7.369,13.831-7.755,31.685,0,40.209c7.757,8.524,18.423,11.729,34.903,9.3
			c5.855-0.864,12.804,4.382,28.895,1.221c16.091-3.16,30.827-21.287,24.234-33.94C181.65,185.772,125.031,154.232,100.21,181.638z"
			/>
		<g>
			<defs>
				<path id="SVGID_5_" d="M154.763,121.914c40.848-3.877,83.597,15.734,70.837,71.875c-3.877,17.063-37.747,29.214-48.345,50.155
					c-10.601,20.943-10.619,20.945-8.034,29.222c-13.702-26.113-11.098-36.977,2.864-53.782c13.959-16.805,8.014-17.84,8.014-17.84
					c-13.961-10.341-23.269-17.322-46.796-20.425c-23.526-3.102-21.976-4.654-33.093,0.519c-15.77-18.875-5.688-31.542-5.688-31.542
					c-8.531,5.947-17.322-0.259-17.322-0.259c17.322,0.259,20.166-18.098,34.644-18.873c-11.375-3.103-14.478-1.293-14.478-1.293
					c9.824-6.204,31.975-13.369,45.761-9.566C150.626,122.173,154.763,121.914,154.763,121.914z"/>
			</defs>
			<use xlink:href="#SVGID_5_"  style="overflow:visible;fill:#EC1E2A;"/>
			<clipPath id="SVGID_6_">
				<use xlink:href="#SVGID_5_"  style="overflow:visible;"/>
			</clipPath>
			<path class="st9" d="M106.352,191.462c0,0-18.55-58.171,43.919-69.854c-38.814,15.948-27.89,74.765-27.89,74.765L106.352,191.462
				z"/>
			<path class="st9" d="M152.549,188.974c15.222-34.032,0-67.121,0-67.121s34.143,30.762,15.222,74.25
				C166.14,199.852,150.833,192.809,152.549,188.974z"/>
			<path class="st9" d="M178.793,225.072c0,0-19.155,15.004-9.572,48.094c9.585,33.088,28.2-39.774,28.2-39.774L178.793,225.072z"/>
			<path class="st9" d="M152.549,120.492c0,0,63.183,19.987,39.065,106.639c-15.528,55.788,56.69-4.79,55.399-46.276
				C245.718,139.366,197.373,111.96,152.549,120.492z"/>
		</g>
	</g>
	<g id="yeux">
		<path class="st8" d="M111.83,193.558c-0.146,2.307-1.406,4.088-2.813,3.981c-1.406-0.107-2.427-2.064-2.28-4.37
			c0.146-2.307,1.407-4.09,2.813-3.981C110.957,189.296,111.978,191.252,111.83,193.558z"/>
		<path class="st8" d="M144.212,196.759c-0.168,2.646-1.897,4.668-3.863,4.518c-1.966-0.15-3.422-2.417-3.253-5.063
			c0.17-2.645,1.899-4.668,3.865-4.518C142.927,191.846,144.382,194.112,144.212,196.759z"/>
	</g>
	<g id="nez">
		<path class="st14" d="M118.344,202.948c0,0-0.32,0.206-0.799,0.514c-0.239,0.153-0.505,0.349-0.776,0.568
			c-0.264,0.223-0.528,0.499-0.634,0.83c-0.06,0.163-0.061,0.336-0.036,0.506c0.041,0.169,0.103,0.331,0.19,0.48
			c0.172,0.296,0.375,0.557,0.564,0.767c0.373,0.427,0.651,0.689,0.651,0.689s-0.075-0.059-0.207-0.161
			c-0.133-0.101-0.323-0.247-0.53-0.446c-0.205-0.2-0.446-0.441-0.638-0.757c-0.098-0.158-0.174-0.337-0.225-0.532
			c-0.035-0.199-0.039-0.413,0.029-0.611c0.14-0.396,0.439-0.68,0.719-0.907c0.289-0.222,0.581-0.389,0.832-0.528
			C117.991,203.089,118.344,202.948,118.344,202.948z"/>
	</g>
	<g id="bouche">
		<path class="st10" d="M120.808,215.312c3.64,0.646,6.872,0.257,10.104-1.486c-0.388,4.201-2.78,7.69-6.464,7.626
			C120.763,221.387,120.808,215.312,120.808,215.312z"/>
		<path class="st14" d="M120.808,215.312l1.292,0.167l1.297,0.077c0.433,0.002,0.866-0.019,1.298-0.023
			c0.431-0.034,0.861-0.084,1.291-0.125l1.273-0.245c0.415-0.122,0.832-0.236,1.244-0.364l1.206-0.474l1.162-0.573l0.14-0.069
			l-0.015,0.152c-0.152,1.574-0.554,3.149-1.364,4.528c-0.198,0.346-0.435,0.668-0.679,0.983c-0.256,0.308-0.533,0.594-0.836,0.856
			c-0.609,0.517-1.326,0.913-2.098,1.123c-0.189,0.066-0.387,0.096-0.585,0.126c-0.196,0.04-0.395,0.061-0.595,0.06
			c-0.4,0.031-0.805-0.014-1.186-0.117c-0.796-0.225-1.409-0.822-1.812-1.503c-0.411-0.685-0.647-1.454-0.803-2.227
			C120.888,216.888,120.808,216.1,120.808,215.312z M120.808,215.312c0.021,0.787,0.125,1.571,0.296,2.337
			c0.178,0.763,0.434,1.514,0.836,2.18c0.396,0.661,1.004,1.228,1.741,1.428c0.373,0.097,0.767,0.138,1.15,0.104
			c0.195-0.001,0.387-0.024,0.577-0.064c0.192-0.031,0.383-0.062,0.566-0.127c0.746-0.211,1.436-0.601,2.021-1.108
			c0.292-0.257,0.558-0.538,0.804-0.84c0.235-0.309,0.463-0.624,0.652-0.964c0.79-1.345,1.212-2.885,1.374-4.438l0.125,0.083
			l-1.18,0.567l-1.223,0.467c-0.418,0.125-0.84,0.237-1.26,0.355l-1.287,0.235c-0.435,0.037-0.868,0.083-1.303,0.113
			c-0.436-0.002-0.871,0.002-1.306-0.01l-1.3-0.114L120.808,215.312z"/>
	</g>
	<g id="baguette">
		<path class="st6" d="M307.396,357.609c15.017,12.701,79.235,66.512,99.22,74.881c-16.282-19.168-78.412-69.293-93.722-81.553
			c-1.882-1.506-4.632-1.18-6.113,0.721l0,0C305.357,353.488,305.626,356.115,307.396,357.609z"/>
		<polygon class="st7" points="424.831,459.842 416.832,450.938 405.926,455.871 409.639,444.492 399.917,437.514 411.628,435.037 
			412.808,423.131 420.807,432.033 431.709,427.1 427.996,438.479 437.722,445.457 426.011,447.93 		"/>
	</g>
	<path class="st4" d="M23.037,196.915"/>
	<g>
		<defs>
			<path id="SVGID_7_" d="M179.711,203.161c0,0,44.205-30.058,54.294-58.883c2.713-7.755,1.907,5.85-2.143,19.779
				c-4.047,13.929-53.396,111.113-63.786,54.099C166.138,207.514,173.834,207.412,179.711,203.161z"/>
		</defs>
		<use xlink:href="#SVGID_7_"  style="overflow:visible;fill:#EFBEB3;"/>
		<clipPath id="SVGID_8_">
			<use xlink:href="#SVGID_7_"  style="overflow:visible;"/>
		</clipPath>
		<path class="st13" d="M189.854,193.724c16.615-9.89,28.445-17.259,25.729-10.278c-2.715,6.98-23.075,41.302-35.484,39.557
			c-12.411-1.744-18.838-12.45-12.328-17.665S189.854,193.724,189.854,193.724z"/>
	</g>
</g>
<g>
</g>
<g>
</g>
<g>
</g>
<g>
</g>
<g>
</g>
<g>
</g>
<g>
</g>
<g>
</g>
<g>
</g>
<g>
</g>
<g>
</g>
<g>
</g>
<g>
</g>
<g>
</g>
<g>
</g>
</svg>
